<svg xmlns="http://www.w3.org/2000/svg" viewBox="0 0 100 100" width="100" height="100">
  <defs>
    <linearGradient id="gradient1" x1="0%" y1="0%" x2="100%" y2="100%">
      <stop offset="0%" style="stop-color:#667eea;stop-opacity:1" />
      <stop offset="100%" style="stop-color:#764ba2;stop-opacity:1" />
    </linearGradient>
  </defs>
  
  <!-- 章鱼身体 -->
  <ellipse cx="50" cy="35" rx="25" ry="20" fill="url(#gradient1)"/>
  
  <!-- 章鱼眼睛 -->
  <circle cx="42" cy="30" r="4" fill="white"/>
  <circle cx="58" cy="30" r="4" fill="white"/>
  <circle cx="42" cy="30" r="2" fill="#2c3e50"/>
  <circle cx="58" cy="30" r="2" fill="#2c3e50"/>
  
  <!-- 章鱼触手 -->
  <path d="M35 50 Q30 65 25 80 Q22 85 30 85 Q35 80 40 65" fill="url(#gradient1)"/>
  <path d="M45 52 Q40 70 35 85 Q32 90 40 90 Q45 85 50 70" fill="url(#gradient1)"/>
  <path d="M55 52 Q60 70 65 85 Q68 90 60 90 Q55 85 50 70" fill="url(#gradient1)"/>
  <path d="M65 50 Q70 65 75 80 Q78 85 70 85 Q65 80 60 65" fill="url(#gradient1)"/>
  
  <!-- 游戏手柄元素 -->
  <rect x="40" y="20" width="20" height="8" rx="4" fill="#3498db" opacity="0.8"/>
  <circle cx="44" cy="24" r="1.5" fill="white"/>
  <circle cx="56" cy="24" r="1.5" fill="white"/>
</svg>
